<svg width="52" height="50" viewBox="0 0 52 50" fill="none" xmlns="http://www.w3.org/2000/svg">
<g filter="url(#filter0_d_12098_565)">
<path d="M19.9311 17.5986C22.8639 17.5986 25.2414 14.2021 25.2414 10.0124C25.2414 5.82261 22.8639 2.42615 19.9311 2.42615C16.9982 2.42615 14.6207 5.82261 14.6207 10.0124C14.6207 14.2021 16.9982 17.5986 19.9311 17.5986Z" fill="#FFB334"/>
<path d="M32.069 17.5986C35.0018 17.5986 37.3793 14.2021 37.3793 10.0124C37.3793 5.82261 35.0018 2.42615 32.069 2.42615C29.1362 2.42615 26.7587 5.82261 26.7587 10.0124C26.7587 14.2021 29.1362 17.5986 32.069 17.5986Z" fill="#FFB334"/>
<path d="M13.1034 19.1158C13.1034 23.3057 12.583 26.702 10.069 26.702C7.5549 26.702 4 23.3057 4 19.1158C4 14.9259 6.03766 11.5296 8.55172 11.5296C11.0658 11.5296 13.1034 14.9259 13.1034 19.1158Z" fill="#FFB334"/>
<path d="M48.0001 19.1158C48.0001 23.3057 44.4452 26.702 41.9311 26.702C39.417 26.702 38.8966 23.3057 38.8966 19.1158C38.8966 14.9259 40.9343 11.5296 43.4483 11.5296C45.9624 11.5296 48.0001 14.9259 48.0001 19.1158Z" fill="#FFB334"/>
<path d="M38.1379 32.1208C38.1379 36.6657 35.7862 40.4846 30.5517 41.5672C29.5822 41.7675 27.0476 37.3227 26 37.3227C24.9523 37.3227 22.4178 41.7675 21.4483 41.5672C16.2138 40.4846 13.8621 36.6657 13.8621 32.1208C13.8621 26.7339 19.2961 19.1158 26 19.1158C32.7039 19.1158 38.1379 26.7339 38.1379 32.1208Z" fill="#FFB334"/>
<path d="M16.8966 32.771H16.8814C16.4626 32.7627 16.1296 32.4164 16.138 31.9975C16.138 31.9974 16.138 31.9973 16.138 31.9972C16.2222 27.8088 20.6738 21.3917 26 21.3917C26.419 21.3917 26.7587 21.7313 26.7587 22.1503C26.7587 22.5692 26.419 22.9089 26 22.9089C21.5735 22.9089 17.7265 28.5098 17.6552 32.0275C17.647 32.4406 17.3098 32.7711 16.8966 32.771Z" fill="#FFEEAD"/>
</g>
<defs>
<filter id="filter0_d_12098_565" x="0" y="0" width="52" height="52" filterUnits="userSpaceOnUse" color-interpolation-filters="sRGB">
<feFlood flood-opacity="0" result="BackgroundImageFix"/>
<feColorMatrix in="SourceAlpha" type="matrix" values="0 0 0 0 0 0 0 0 0 0 0 0 0 0 0 0 0 0 127 0" result="hardAlpha"/>
<feOffset dy="4"/>
<feGaussianBlur stdDeviation="2"/>
<feComposite in2="hardAlpha" operator="out"/>
<feColorMatrix type="matrix" values="0 0 0 0 0 0 0 0 0 0 0 0 0 0 0 0 0 0 0.25 0"/>
<feBlend mode="normal" in2="BackgroundImageFix" result="effect1_dropShadow_12098_565"/>
<feBlend mode="normal" in="SourceGraphic" in2="effect1_dropShadow_12098_565" result="shape"/>
</filter>
</defs>
</svg>
